<?xml version="1.0" encoding="utf-8"?>
<!-- Generator: Adobe Illustrator 24.3.0, SVG Export Plug-In . SVG Version: 6.00 Build 0)  -->
<svg version="1.1" id="Layer_1" xmlns="http://www.w3.org/2000/svg" xmlns:xlink="http://www.w3.org/1999/xlink" x="0px" y="0px"
	 viewBox="0 0 80 80" style="enable-background:new 0 0 80 80;" xml:space="preserve">
<style type="text/css">
	.st0{fill:none;stroke:#000000;stroke-width:0.25;}
	.st1{fill-rule:evenodd;clip-rule:evenodd;fill:#171796;}
	.st2{fill-rule:evenodd;clip-rule:evenodd;fill:#FFFFFF;}
	.st3{fill-rule:evenodd;clip-rule:evenodd;fill:#ED1C24;}
</style>
<g>
	<rect class="st3" width="80" height="80"/>
	<g>
		<polygon class="st2" points="19.61,64.76 40.25,47.56 60.88,64.76 65.07,64.76 65.5,63.59 40.25,42.54 14.99,63.59 15.42,64.76 		
			"/>
		<path class="st2" d="M54.8,26.98h0.31v0.25L54.8,26.98z M53.66,26.07L40,15.24L4,43.8l0.41,1.19h4.56L40,20.37l31.03,24.62h4.56
			L76,43.8L59.43,30.65v-3.67h1.46v-2.8h-7.23V26.07z"/>
		<polygon class="st2" points="15.82,44.45 15.15,44.45 15.15,61.24 16.18,61.72 40.25,41.65 64.32,61.72 65.34,61.24 65.34,44.45 
			64.68,44.45 40.25,24.07 		"/>
		<path class="st1" d="M16.04,60.68l24.21-20.19l24.21,20.19V45.42h0l0,0v-0.08h-0.1l-24.11-20.1l-24.11,20.1h-0.1v0.08v0V60.68z
			 M58.54,26.09H60v-1.03h-1.46H56h-1.46v1.03H56v2.97l-16-12.7L5.05,44.1h3.62L40,19.24L71.34,44.1h3.62L58.54,31.08V26.09z
			 M19.29,63.88L40.25,46.4L61.2,63.88h3.25L40.25,43.69L16.04,63.88H19.29z M16.04,45.42L16.04,45.42L16.04,45.42z"/>
	</g>
</g>
</svg>
