<?xml version="1.0" encoding="utf-8"?>
<!-- Generator: Adobe Illustrator 24.3.0, SVG Export Plug-In . SVG Version: 6.00 Build 0)  -->
<svg version="1.1" id="Layer_1" xmlns="http://www.w3.org/2000/svg" xmlns:xlink="http://www.w3.org/1999/xlink" x="0px" y="0px"
	 viewBox="0 0 2579.53 3429.92" style="enable-background:new 0 0 2579.53 3429.92;" xml:space="preserve">
<style type="text/css">
	.st0{fill:none;stroke:#000000;stroke-width:0.25;}
	.st1{fill-rule:evenodd;clip-rule:evenodd;fill:#171796;}
	.st2{fill-rule:evenodd;clip-rule:evenodd;fill:#FFFFFF;}
	.st3{fill-rule:evenodd;clip-rule:evenodd;fill:#ED1C24;}
</style>
<rect x="1259.68" y="1674.96" class="st0" width="60.17" height="80"/>
<path class="st1" d="M1316.31,1724.62v-15.53c-1.08-0.7-2.32-0.99-3.57-0.75l-49.55,9.68v16.19c0.85,0.35,1.76,0.46,2.67,0.28
	l50.07-9.78C1316.07,1724.69,1316.19,1724.66,1316.31,1724.62z"/>
<path class="st2" d="M1280.89,1727.02l-0.24-1.21c-0.01-0.05-0.02-0.09-0.02-0.12c0-0.03,0-0.05,0.01-0.07
	c0.01-0.02,0.03-0.03,0.06-0.05s0.07-0.03,0.12-0.04c0.13-0.03,0.27,0,0.4,0.09c0.13,0.09,0.23,0.26,0.29,0.52
	c0.03,0.14,0.03,0.26,0.02,0.36c-0.02,0.11-0.05,0.2-0.11,0.27c-0.04,0.06-0.09,0.1-0.16,0.13c-0.06,0.03-0.14,0.06-0.23,0.08
	L1280.89,1727.02z M1283.1,1728.14c-0.05-0.01-0.1-0.03-0.16-0.06c-0.06-0.03-0.12-0.07-0.19-0.12c-0.06-0.04-0.12-0.1-0.19-0.17
	c-0.07-0.07-0.16-0.17-0.27-0.28c-0.1-0.11-0.2-0.22-0.3-0.35c-0.1-0.12-0.18-0.22-0.23-0.3c0.15-0.1,0.27-0.23,0.35-0.38
	s0.1-0.34,0.06-0.55c-0.03-0.15-0.09-0.28-0.17-0.38s-0.17-0.17-0.29-0.22c-0.11-0.04-0.22-0.07-0.35-0.07s-0.28,0.01-0.46,0.05
	l-1.35,0.27l0.03,0.17c0.16-0.02,0.27-0.01,0.33,0.03s0.1,0.17,0.13,0.36l0.39,1.94c0.05,0.2,0.05,0.33,0.01,0.4
	s-0.14,0.12-0.3,0.16l0.03,0.17l1.39-0.28l-0.03-0.17c-0.16,0.03-0.28,0.02-0.33-0.04c-0.06-0.05-0.11-0.18-0.14-0.38l-0.15-0.75
	l0.09-0.02c0.07-0.01,0.14,0,0.19,0.02c0.05,0.03,0.1,0.08,0.15,0.15c0.09,0.12,0.18,0.24,0.27,0.35c0.09,0.11,0.18,0.21,0.26,0.3
	c0.08,0.09,0.17,0.17,0.26,0.22s0.19,0.09,0.31,0.1c0.12,0.01,0.28,0,0.47-0.03c0.07-0.01,0.13-0.02,0.18-0.03L1283.1,1728.14z"/>
<path class="st2" d="M1283.78,1725.92c0.09-0.01,0.17,0.03,0.24,0.13s0.12,0.21,0.14,0.34c0.01,0.04,0.01,0.08,0,0.1
	c-0.01,0.02-0.04,0.03-0.08,0.04c-0.09,0.02-0.18,0.05-0.27,0.07s-0.18,0.04-0.28,0.06c-0.02-0.2-0.01-0.36,0.04-0.5
	C1283.62,1726.02,1283.69,1725.94,1283.78,1725.92z M1284.83,1727.28c-0.06,0.09-0.14,0.15-0.21,0.2c-0.08,0.05-0.16,0.09-0.27,0.11
	c-0.17,0.03-0.33-0.01-0.48-0.12c-0.15-0.12-0.25-0.31-0.32-0.57c0.16-0.04,0.32-0.08,0.48-0.12s0.3-0.08,0.42-0.12
	c0.12-0.03,0.19-0.06,0.22-0.07c0.05-0.02,0.09-0.05,0.1-0.08c0.01-0.03,0.01-0.08,0-0.13c-0.04-0.21-0.15-0.38-0.32-0.51
	c-0.17-0.13-0.37-0.18-0.61-0.14c-0.14,0.03-0.26,0.09-0.38,0.18s-0.21,0.2-0.28,0.32c-0.07,0.11-0.13,0.25-0.17,0.42
	s-0.04,0.36,0,0.57c0.04,0.19,0.11,0.36,0.22,0.51c0.11,0.15,0.25,0.25,0.41,0.32s0.36,0.08,0.57,0.04
	c0.11-0.02,0.23-0.08,0.37-0.19c0.14-0.11,0.26-0.27,0.36-0.5L1284.83,1727.28z"/>
<path class="st2" d="M1286.36,1727.17c-0.02,0.03-0.05,0.05-0.07,0.07c-0.03,0.02-0.06,0.03-0.09,0.04
	c-0.07,0.01-0.14-0.01-0.22-0.06s-0.13-0.14-0.16-0.26c-0.02-0.08-0.01-0.15,0.01-0.21c0.03-0.06,0.07-0.11,0.13-0.17
	c0.04-0.04,0.08-0.07,0.12-0.11c0.04-0.04,0.08-0.07,0.12-0.11L1286.36,1727.17z M1287.35,1727.16l-0.08-0.15
	c-0.02,0.01-0.04,0.02-0.06,0.03c-0.02,0.01-0.05,0.02-0.09,0.03c-0.04,0.01-0.08,0-0.12-0.04c-0.04-0.04-0.07-0.11-0.09-0.22
	l-0.18-0.9c-0.02-0.12-0.06-0.22-0.11-0.32s-0.13-0.17-0.22-0.22c-0.08-0.04-0.16-0.07-0.24-0.08c-0.09-0.01-0.18-0.01-0.28,0.01
	c-0.15,0.06-0.28,0.13-0.41,0.23c-0.13,0.1-0.24,0.19-0.32,0.28c-0.05,0.05-0.08,0.1-0.1,0.14c-0.02,0.04-0.03,0.08-0.02,0.12
	c0.02,0.07,0.07,0.12,0.14,0.15c0.08,0.03,0.15,0.04,0.22,0.03c0.05-0.01,0.08-0.03,0.11-0.06c0.03-0.03,0.04-0.08,0.04-0.14
	c0-0.08,0.01-0.16,0.02-0.22s0.02-0.11,0.04-0.15c0.02-0.04,0.04-0.07,0.07-0.09c0.03-0.02,0.06-0.03,0.09-0.04
	c0.07-0.01,0.14,0.01,0.21,0.07c0.07,0.06,0.12,0.17,0.15,0.31l0.04,0.21c-0.03,0.04-0.09,0.09-0.17,0.15
	c-0.08,0.06-0.17,0.12-0.26,0.17c-0.09,0.06-0.18,0.11-0.25,0.16c-0.11,0.07-0.19,0.15-0.23,0.24s-0.05,0.2-0.02,0.33
	c0.03,0.16,0.12,0.29,0.26,0.39s0.31,0.14,0.51,0.11c0.06-0.02,0.14-0.07,0.22-0.14c0.08-0.08,0.16-0.16,0.23-0.23
	c0.01,0.02,0.03,0.05,0.06,0.07c0.02,0.03,0.05,0.05,0.09,0.07c0.04,0.02,0.08,0.04,0.13,0.05c0.05,0.01,0.11,0.01,0.17,0
	L1287.35,1727.16z"/>
<path class="st2" d="M1288.67,1727.12l-0.03-0.16c-0.14,0.02-0.23,0.01-0.27-0.03c-0.04-0.04-0.08-0.14-0.11-0.3l-0.59-2.94
	c-0.13,0.07-0.28,0.13-0.43,0.19c-0.15,0.06-0.29,0.11-0.43,0.16l0.03,0.14c0.13-0.01,0.22,0,0.25,0.03
	c0.04,0.03,0.07,0.12,0.09,0.27l0.46,2.28c0.04,0.15,0.04,0.26,0.02,0.31c-0.03,0.05-0.1,0.1-0.23,0.14l0.03,0.16L1288.67,1727.12z"
	/>
<path class="st2" d="M1291.99,1725.6c-0.02,0.11-0.04,0.21-0.07,0.3c-0.03,0.08-0.06,0.16-0.09,0.22c-0.04,0.07-0.1,0.12-0.17,0.17
	s-0.18,0.07-0.31,0.1c-0.09,0.02-0.17,0.03-0.24,0.04s-0.12,0-0.17-0.01c-0.04-0.01-0.08-0.05-0.11-0.1
	c-0.03-0.06-0.05-0.15-0.08-0.26l-0.18-0.91l0.29-0.06c0.19-0.05,0.32-0.05,0.39-0.02c0.07,0.03,0.14,0.13,0.2,0.3l0.17-0.03
	l-0.2-0.98l-0.17,0.03c0,0.18-0.02,0.29-0.07,0.35s-0.18,0.1-0.37,0.13l-0.29,0.06l-0.21-1.06c-0.02-0.08-0.02-0.13,0-0.16
	s0.07-0.05,0.15-0.06l0.18-0.04c0.15-0.03,0.26-0.04,0.34-0.03s0.14,0.03,0.18,0.07c0.05,0.04,0.09,0.08,0.13,0.15
	c0.04,0.06,0.08,0.14,0.13,0.22l0.17-0.06c-0.04-0.15-0.08-0.29-0.12-0.43c-0.04-0.14-0.06-0.23-0.08-0.28l-2.17,0.43l0.03,0.17
	c0.15-0.02,0.26-0.01,0.32,0.03c0.06,0.04,0.1,0.16,0.14,0.36l0.39,1.96c0.05,0.2,0.05,0.33,0.01,0.39
	c-0.04,0.06-0.15,0.12-0.33,0.16l0.03,0.17l2.34-0.47c0-0.05,0.01-0.13,0.01-0.24s0-0.21,0-0.31c0-0.11,0-0.2-0.01-0.27
	L1291.99,1725.6z"/>
<path class="st2" d="M1293.67,1724.41c-0.01-0.03-0.03-0.08-0.05-0.15c-0.03-0.07-0.05-0.14-0.08-0.21
	c-0.03-0.07-0.06-0.13-0.08-0.17c-0.06-0.01-0.13-0.02-0.21-0.02c-0.08,0-0.17,0.01-0.27,0.03c-0.26,0.06-0.45,0.17-0.56,0.33
	c-0.11,0.16-0.15,0.34-0.11,0.54c0.03,0.13,0.09,0.24,0.17,0.32c0.08,0.08,0.18,0.14,0.28,0.18s0.21,0.08,0.3,0.11
	c0.15,0.04,0.25,0.09,0.32,0.15c0.07,0.06,0.11,0.13,0.12,0.21c0.01,0.08,0,0.15-0.03,0.22c-0.04,0.06-0.09,0.1-0.17,0.12
	c-0.14,0.02-0.28-0.02-0.41-0.13c-0.13-0.11-0.24-0.24-0.33-0.39l-0.14,0.06c0.01,0.06,0.03,0.14,0.06,0.22
	c0.03,0.08,0.05,0.16,0.08,0.23s0.05,0.13,0.06,0.16c0.06,0.03,0.15,0.05,0.26,0.07c0.12,0.01,0.24,0.01,0.38-0.02
	c0.14-0.03,0.26-0.08,0.38-0.16s0.21-0.18,0.27-0.31c0.06-0.13,0.08-0.27,0.05-0.44c-0.04-0.19-0.13-0.33-0.28-0.42
	c-0.14-0.09-0.32-0.16-0.53-0.21c-0.12-0.03-0.22-0.07-0.29-0.12c-0.07-0.05-0.11-0.12-0.13-0.2c-0.01-0.08,0-0.15,0.03-0.21
	c0.04-0.07,0.09-0.11,0.17-0.13c0.1-0.02,0.2,0.01,0.29,0.08c0.09,0.07,0.19,0.18,0.29,0.34L1293.67,1724.41z"/>
<path class="st2" d="M1295.72,1725.53l-0.08-0.16c-0.03,0.02-0.06,0.04-0.1,0.06c-0.04,0.02-0.08,0.03-0.14,0.04
	c-0.07,0.02-0.13,0-0.2-0.05c-0.07-0.05-0.12-0.16-0.16-0.35l-0.25-1.26l0.44-0.09c0.03-0.03,0.05-0.07,0.04-0.12
	c-0.01-0.05-0.03-0.09-0.06-0.12l-0.47,0.09l-0.14-0.7l-0.08-0.02l-0.47,0.49l0.07,0.35l-0.18,0.04l-0.1,0.2l0.04,0.05l0.29-0.06
	l0.29,1.43c0.05,0.22,0.13,0.37,0.25,0.45c0.12,0.08,0.27,0.1,0.45,0.06c0.03-0.01,0.06-0.02,0.09-0.03s0.07-0.04,0.1-0.06
	L1295.72,1725.53z"/>
<path class="st2" d="M1296.97,1725.05c-0.02,0.03-0.05,0.05-0.07,0.07c-0.03,0.02-0.06,0.03-0.09,0.04
	c-0.07,0.01-0.14-0.01-0.22-0.06c-0.08-0.05-0.13-0.14-0.16-0.26c-0.02-0.08-0.01-0.15,0.01-0.21s0.07-0.11,0.13-0.17
	c0.04-0.04,0.08-0.07,0.12-0.11c0.04-0.04,0.08-0.07,0.12-0.11L1296.97,1725.05z M1297.96,1725.03l-0.08-0.15
	c-0.02,0.01-0.04,0.02-0.06,0.03c-0.02,0.01-0.05,0.02-0.09,0.03c-0.04,0.01-0.08,0-0.12-0.04c-0.04-0.04-0.07-0.11-0.09-0.22
	l-0.18-0.9c-0.02-0.12-0.06-0.22-0.11-0.32s-0.13-0.17-0.22-0.22c-0.08-0.04-0.16-0.07-0.24-0.08c-0.09-0.01-0.18-0.01-0.28,0.01
	c-0.15,0.06-0.28,0.13-0.41,0.23c-0.13,0.1-0.24,0.19-0.32,0.29c-0.05,0.05-0.08,0.1-0.1,0.14c-0.02,0.04-0.03,0.08-0.02,0.12
	c0.02,0.07,0.07,0.12,0.14,0.15c0.08,0.03,0.15,0.04,0.22,0.03c0.05-0.01,0.08-0.03,0.11-0.06c0.03-0.03,0.04-0.08,0.04-0.14
	c0-0.08,0.01-0.16,0.02-0.22s0.02-0.11,0.04-0.15c0.02-0.04,0.04-0.07,0.07-0.09c0.03-0.02,0.06-0.03,0.09-0.04
	c0.07-0.01,0.14,0.01,0.21,0.07c0.07,0.06,0.12,0.17,0.15,0.31l0.04,0.21c-0.03,0.04-0.09,0.09-0.17,0.15s-0.17,0.12-0.26,0.17
	c-0.09,0.06-0.18,0.11-0.25,0.16c-0.11,0.07-0.19,0.15-0.23,0.24s-0.05,0.2-0.02,0.33c0.03,0.16,0.12,0.29,0.26,0.39
	c0.14,0.11,0.31,0.14,0.51,0.11c0.06-0.02,0.14-0.07,0.22-0.14c0.08-0.08,0.16-0.16,0.23-0.23c0.01,0.02,0.03,0.05,0.06,0.07
	c0.02,0.03,0.05,0.05,0.09,0.07c0.04,0.02,0.08,0.04,0.13,0.05c0.05,0.01,0.11,0.01,0.17,0L1297.96,1725.03z"/>
<path class="st2" d="M1299.46,1724.78l-0.08-0.16c-0.03,0.02-0.06,0.04-0.1,0.06c-0.04,0.02-0.08,0.03-0.14,0.04
	c-0.07,0.02-0.13,0-0.2-0.05c-0.07-0.05-0.12-0.16-0.16-0.35l-0.25-1.26l0.44-0.09c0.03-0.03,0.05-0.07,0.04-0.12
	c-0.01-0.05-0.03-0.09-0.06-0.12l-0.47,0.09l-0.14-0.7l-0.08-0.02l-0.47,0.49l0.07,0.35l-0.18,0.04l-0.1,0.2l0.04,0.05l0.29-0.06
	l0.29,1.43c0.05,0.22,0.13,0.37,0.25,0.45c0.12,0.08,0.27,0.1,0.45,0.06c0.03-0.01,0.06-0.02,0.09-0.03s0.07-0.04,0.1-0.06
	L1299.46,1724.78z"/>
<path class="st2" d="M1300.17,1722.64c0.09-0.01,0.17,0.03,0.24,0.13c0.07,0.1,0.12,0.21,0.14,0.34c0.01,0.04,0.01,0.08,0,0.1
	c-0.01,0.02-0.04,0.03-0.08,0.04c-0.09,0.02-0.18,0.05-0.27,0.07c-0.09,0.02-0.18,0.04-0.28,0.06c-0.02-0.2-0.01-0.36,0.04-0.5
	C1300.01,1722.74,1300.08,1722.66,1300.17,1722.64z M1301.22,1723.99c-0.06,0.09-0.14,0.15-0.21,0.2c-0.08,0.05-0.16,0.09-0.27,0.11
	c-0.17,0.03-0.33-0.01-0.48-0.12c-0.15-0.12-0.25-0.31-0.32-0.57c0.16-0.04,0.32-0.08,0.48-0.12c0.16-0.04,0.3-0.08,0.42-0.12
	c0.12-0.03,0.19-0.06,0.22-0.07c0.05-0.02,0.09-0.05,0.1-0.08c0.01-0.03,0.01-0.08,0-0.13c-0.04-0.21-0.15-0.38-0.32-0.51
	c-0.17-0.13-0.37-0.18-0.61-0.14c-0.14,0.03-0.26,0.09-0.38,0.18c-0.11,0.09-0.21,0.2-0.28,0.32c-0.07,0.11-0.13,0.25-0.17,0.42
	s-0.04,0.36,0,0.57c0.04,0.19,0.11,0.36,0.22,0.51c0.11,0.15,0.25,0.25,0.41,0.32c0.17,0.07,0.36,0.08,0.57,0.04
	c0.11-0.02,0.23-0.08,0.37-0.19c0.14-0.11,0.26-0.27,0.36-0.5L1301.22,1723.99z"/>
<path class="st2" d="M1269.48,1720.93c0.3-0.05,0.57,0.08,0.81,0.4s0.41,0.79,0.54,1.41c0.11,0.57,0.12,1.02,0.03,1.34
	c-0.09,0.32-0.26,0.51-0.5,0.56c-0.22,0.04-0.43-0.01-0.61-0.16s-0.34-0.37-0.48-0.65c-0.13-0.28-0.24-0.61-0.31-0.97
	c-0.1-0.51-0.11-0.95-0.02-1.3S1269.21,1721,1269.48,1720.93z M1269.51,1720.67c-0.42,0.09-0.75,0.27-0.99,0.53
	s-0.39,0.57-0.46,0.92c-0.07,0.35-0.07,0.7,0,1.05c0.08,0.4,0.23,0.75,0.44,1.03c0.21,0.29,0.47,0.49,0.78,0.62
	c0.31,0.13,0.65,0.16,1.02,0.08c0.35-0.07,0.65-0.22,0.89-0.45s0.41-0.52,0.51-0.87c0.1-0.35,0.1-0.75,0.01-1.2
	c-0.09-0.42-0.24-0.77-0.46-1.05s-0.48-0.48-0.78-0.6S1269.86,1720.61,1269.51,1720.67z"/>
<path class="st2" d="M1273.23,1721.93l-0.13-0.66c-0.15,0.09-0.32,0.17-0.49,0.25c-0.17,0.08-0.35,0.15-0.54,0.21l0.03,0.17
	c0.14,0,0.23,0.02,0.28,0.07c0.05,0.04,0.09,0.15,0.12,0.31l0.28,1.39c0.04,0.18,0.04,0.3,0.01,0.36c-0.03,0.06-0.13,0.11-0.28,0.15
	l0.04,0.2l1.59-0.32l-0.04-0.2c-0.21,0.03-0.34,0.03-0.4-0.01c-0.06-0.04-0.11-0.15-0.14-0.34l-0.25-1.25
	c0.03-0.13,0.06-0.21,0.11-0.26c0.04-0.05,0.09-0.07,0.15-0.08c0.05-0.01,0.09-0.01,0.14,0.01c0.04,0.01,0.09,0.04,0.15,0.07
	c0.03,0.01,0.05,0.02,0.08,0.02c0.03,0,0.06-0.01,0.1-0.04c0.07-0.05,0.13-0.11,0.17-0.21s0.06-0.2,0.04-0.31
	c-0.02-0.11-0.08-0.2-0.16-0.26c-0.08-0.06-0.18-0.08-0.3-0.06c-0.12,0.03-0.23,0.11-0.31,0.25c-0.09,0.14-0.16,0.32-0.22,0.53
	L1273.23,1721.93z"/>
<path class="st2" d="M1275.45,1721.27c0.04-0.02,0.08-0.04,0.12-0.06c0.04-0.02,0.08-0.03,0.12-0.03c0.2-0.04,0.38,0.01,0.56,0.16
	c0.17,0.15,0.3,0.42,0.39,0.8c0.07,0.4,0.07,0.71,0,0.93c-0.08,0.23-0.2,0.35-0.36,0.38c-0.1,0.01-0.18,0-0.24-0.05
	c-0.07-0.05-0.11-0.1-0.14-0.14c-0.02-0.03-0.04-0.07-0.05-0.1c-0.01-0.04-0.03-0.08-0.03-0.12L1275.45,1721.27z M1275.41,1721.05
	l-0.35-1.74c-0.17,0.08-0.35,0.16-0.55,0.24s-0.38,0.15-0.54,0.2l0.04,0.19c0.16-0.02,0.27-0.01,0.32,0.03s0.09,0.15,0.12,0.33
	l0.68,3.4c0.22,0.04,0.42,0.07,0.59,0.07s0.33-0.01,0.48-0.04c0.46-0.1,0.8-0.33,1.02-0.68c0.22-0.35,0.29-0.77,0.21-1.24
	c-0.05-0.24-0.15-0.45-0.29-0.64c-0.14-0.18-0.31-0.32-0.52-0.4s-0.43-0.11-0.67-0.06c-0.06,0.01-0.12,0.03-0.17,0.06
	c-0.05,0.03-0.11,0.07-0.19,0.13L1275.41,1721.05z"/>
<path class="st2" d="M1278.94,1720.35c0.18-0.03,0.34,0.06,0.48,0.28s0.26,0.54,0.35,0.97c0.06,0.31,0.09,0.54,0.08,0.71
	c-0.01,0.17-0.04,0.29-0.1,0.36s-0.12,0.11-0.19,0.12c-0.18,0.03-0.35-0.08-0.5-0.32c-0.15-0.24-0.26-0.56-0.35-0.96
	c-0.07-0.37-0.08-0.65-0.03-0.84C1278.73,1720.49,1278.82,1720.38,1278.94,1720.35z M1278.97,1720.1c-0.22,0.04-0.42,0.14-0.61,0.3
	c-0.19,0.15-0.33,0.36-0.42,0.61c-0.09,0.26-0.11,0.56-0.04,0.91c0.05,0.23,0.14,0.45,0.28,0.64s0.33,0.34,0.56,0.44
	c0.23,0.1,0.5,0.12,0.8,0.06c0.24-0.05,0.44-0.15,0.62-0.3c0.18-0.15,0.31-0.36,0.39-0.61c0.08-0.25,0.09-0.55,0.02-0.89
	c-0.05-0.25-0.15-0.48-0.3-0.67c-0.15-0.19-0.34-0.33-0.56-0.42S1279.24,1720.05,1278.97,1720.1z"/>
<path class="st2" d="M1282.65,1720.2c-0.01-0.03-0.03-0.1-0.07-0.18c-0.03-0.09-0.07-0.18-0.11-0.27c-0.04-0.09-0.07-0.16-0.1-0.21
	c-0.08-0.02-0.16-0.03-0.26-0.03c-0.1,0-0.21,0.01-0.34,0.03c-0.33,0.07-0.56,0.21-0.7,0.42c-0.14,0.2-0.19,0.43-0.14,0.68
	c0.04,0.17,0.11,0.3,0.21,0.4s0.23,0.18,0.36,0.23c0.13,0.05,0.26,0.1,0.38,0.13c0.18,0.05,0.32,0.12,0.4,0.19
	c0.08,0.07,0.13,0.16,0.15,0.26c0.02,0.1,0.01,0.19-0.04,0.27s-0.12,0.13-0.22,0.15c-0.18,0.03-0.35-0.03-0.51-0.16
	s-0.3-0.3-0.42-0.49l-0.18,0.07c0.02,0.08,0.04,0.17,0.08,0.28c0.03,0.11,0.06,0.2,0.1,0.3s0.06,0.16,0.08,0.2
	c0.07,0.04,0.18,0.06,0.33,0.08c0.15,0.02,0.31,0.01,0.48-0.02c0.17-0.03,0.33-0.1,0.48-0.2c0.15-0.1,0.26-0.23,0.34-0.39
	c0.08-0.16,0.1-0.34,0.06-0.55c-0.05-0.24-0.17-0.41-0.35-0.52c-0.18-0.11-0.4-0.2-0.67-0.26c-0.16-0.04-0.28-0.09-0.36-0.16
	c-0.09-0.06-0.14-0.15-0.16-0.25c-0.02-0.1,0-0.19,0.04-0.27c0.05-0.08,0.11-0.14,0.21-0.16c0.13-0.02,0.25,0.01,0.37,0.1
	c0.12,0.09,0.24,0.23,0.37,0.43L1282.65,1720.2z"/>
<path class="st2" d="M1285.23,1721.61l-0.11-0.2c-0.04,0.03-0.08,0.05-0.12,0.08c-0.05,0.02-0.1,0.04-0.17,0.06
	c-0.08,0.02-0.16,0-0.25-0.06s-0.15-0.21-0.2-0.44l-0.32-1.59l0.56-0.11c0.04-0.03,0.06-0.08,0.05-0.15
	c-0.01-0.07-0.03-0.12-0.07-0.15l-0.59,0.12l-0.18-0.88l-0.1-0.03l-0.59,0.62l0.09,0.44l-0.22,0.04l-0.13,0.25l0.05,0.06l0.36-0.07
	l0.36,1.8c0.06,0.28,0.16,0.47,0.31,0.57s0.34,0.12,0.56,0.08c0.03-0.01,0.07-0.02,0.11-0.04c0.04-0.02,0.08-0.05,0.13-0.08
	L1285.23,1721.61z"/>
<path class="st2" d="M1288.22,1720.75c-0.2,0.04-0.38,0-0.57-0.11s-0.31-0.31-0.37-0.61c-0.03-0.13-0.03-0.26-0.01-0.4
	c0.02-0.13,0.07-0.26,0.14-0.38c0.3,0.19,0.56,0.36,0.77,0.51c0.21,0.15,0.43,0.31,0.66,0.48c-0.06,0.13-0.15,0.24-0.26,0.33
	C1288.48,1720.66,1288.36,1720.72,1288.22,1720.75z M1287.48,1717.32c0.15-0.02,0.28,0.02,0.38,0.13c0.1,0.11,0.17,0.25,0.2,0.42
	c0.04,0.19,0.04,0.35,0.01,0.48c-0.03,0.13-0.08,0.25-0.15,0.34c-0.23-0.12-0.4-0.24-0.52-0.35c-0.12-0.12-0.19-0.25-0.22-0.39
	c-0.03-0.15-0.02-0.29,0.04-0.41S1287.37,1717.35,1287.48,1717.32z M1290.31,1718.05l-1.39,0.28l0.04,0.21
	c0.19-0.02,0.31,0,0.37,0.06c0.06,0.05,0.07,0.16,0.03,0.32c-0.02,0.1-0.05,0.2-0.08,0.29c-0.03,0.09-0.06,0.18-0.1,0.28
	c-0.22-0.15-0.42-0.28-0.61-0.4c-0.19-0.12-0.34-0.22-0.46-0.3c0.08-0.08,0.16-0.16,0.23-0.24c0.07-0.08,0.13-0.15,0.19-0.23
	c0.07-0.08,0.11-0.17,0.14-0.27c0.03-0.09,0.03-0.19,0.01-0.3c-0.06-0.26-0.2-0.46-0.42-0.59c-0.22-0.13-0.48-0.16-0.79-0.11
	c-0.3,0.07-0.54,0.22-0.7,0.46s-0.22,0.51-0.17,0.8c0.04,0.18,0.11,0.33,0.21,0.46s0.24,0.25,0.39,0.35
	c-0.24,0.24-0.42,0.46-0.53,0.66c-0.11,0.19-0.15,0.41-0.1,0.66c0.04,0.18,0.12,0.35,0.25,0.5c0.13,0.15,0.3,0.27,0.5,0.35
	c0.21,0.08,0.45,0.09,0.72,0.04c0.2-0.04,0.38-0.14,0.55-0.29c0.17-0.15,0.31-0.37,0.44-0.66c0.12,0.08,0.22,0.16,0.31,0.24
	c0.09,0.07,0.16,0.13,0.21,0.16c0.05,0.04,0.17,0.07,0.35,0.08c0.18,0.01,0.42,0,0.72-0.05l0.03-0.08
	c-0.18-0.19-0.38-0.38-0.59-0.57c-0.22-0.19-0.44-0.36-0.67-0.53c0.07-0.17,0.13-0.32,0.18-0.45c0.05-0.13,0.11-0.26,0.17-0.39
	c0.07-0.16,0.15-0.28,0.23-0.36c0.08-0.08,0.21-0.14,0.38-0.19L1290.31,1718.05z"/>
<path class="st2" d="M1292.83,1716.74c-0.02-0.1-0.03-0.17-0.03-0.22c0-0.05,0.01-0.09,0.02-0.11c0.02-0.02,0.05-0.04,0.09-0.06
	c0.04-0.02,0.11-0.04,0.18-0.06c0.16-0.03,0.32-0.04,0.47-0.01c0.15,0.03,0.3,0.1,0.44,0.2c0.15,0.11,0.28,0.28,0.4,0.49
	c0.12,0.22,0.21,0.49,0.28,0.81c0.11,0.61,0.09,1.09-0.07,1.43c-0.16,0.35-0.4,0.55-0.72,0.62c-0.16,0.03-0.28,0.02-0.36-0.06
	s-0.14-0.22-0.18-0.43L1292.83,1716.74z M1291.42,1716.36l0.04,0.21c0.2-0.03,0.34-0.02,0.42,0.04c0.07,0.06,0.13,0.22,0.18,0.48
	l0.48,2.41c0.06,0.26,0.06,0.43,0.02,0.51c-0.05,0.09-0.18,0.16-0.4,0.21l0.04,0.21l1.42-0.28c0.36-0.07,0.67-0.18,0.94-0.32
	c0.27-0.14,0.49-0.32,0.66-0.54c0.18-0.22,0.3-0.48,0.36-0.78c0.07-0.3,0.06-0.64-0.01-1.03c-0.06-0.29-0.16-0.53-0.29-0.74
	c-0.13-0.2-0.28-0.37-0.45-0.49c-0.22-0.16-0.47-0.25-0.77-0.29c-0.29-0.03-0.62-0.01-1,0.07L1291.42,1716.36z"/>
<path class="st2" d="M1297.91,1719.29l-0.04-0.2c-0.16,0.02-0.28,0.01-0.33-0.04c-0.06-0.05-0.1-0.17-0.14-0.38l-0.44-2.18
	c-0.17,0.09-0.35,0.17-0.52,0.25s-0.35,0.15-0.53,0.21l0.03,0.17c0.15-0.01,0.25,0.01,0.3,0.06c0.05,0.04,0.09,0.16,0.12,0.35
	l0.26,1.3c0.05,0.21,0.05,0.34,0.02,0.41c-0.03,0.06-0.13,0.12-0.28,0.16l0.04,0.2L1297.91,1719.29z M1296.46,1716.22
	c0.13-0.03,0.22-0.09,0.28-0.19c0.06-0.1,0.08-0.21,0.06-0.33c-0.03-0.13-0.09-0.22-0.18-0.29c-0.09-0.07-0.2-0.09-0.33-0.07
	c-0.12,0.03-0.21,0.09-0.27,0.19c-0.06,0.1-0.09,0.21-0.06,0.34c0.03,0.12,0.09,0.22,0.19,0.28
	C1296.24,1716.22,1296.35,1716.24,1296.46,1716.22z"/>
<path class="st2" d="M1299.57,1716.81c-0.01-0.03-0.03-0.1-0.07-0.18c-0.03-0.09-0.07-0.18-0.11-0.27c-0.04-0.09-0.07-0.16-0.1-0.21
	c-0.08-0.02-0.16-0.03-0.26-0.03c-0.1,0-0.21,0.01-0.34,0.03c-0.33,0.07-0.56,0.21-0.7,0.42c-0.14,0.2-0.19,0.43-0.14,0.68
	c0.04,0.17,0.11,0.3,0.21,0.4c0.11,0.1,0.23,0.18,0.36,0.23s0.26,0.1,0.38,0.13c0.18,0.05,0.32,0.12,0.4,0.19
	c0.08,0.07,0.13,0.16,0.15,0.26c0.02,0.1,0.01,0.19-0.04,0.27c-0.05,0.08-0.12,0.13-0.22,0.15c-0.18,0.03-0.35-0.03-0.51-0.16
	c-0.16-0.14-0.3-0.3-0.42-0.49l-0.18,0.07c0.02,0.08,0.04,0.17,0.08,0.28c0.03,0.1,0.06,0.2,0.1,0.29c0.03,0.09,0.06,0.16,0.08,0.2
	c0.07,0.04,0.18,0.07,0.33,0.08c0.15,0.02,0.31,0.01,0.48-0.02c0.17-0.03,0.33-0.1,0.48-0.2s0.26-0.23,0.34-0.39
	c0.08-0.16,0.1-0.34,0.06-0.55c-0.05-0.24-0.17-0.41-0.35-0.52c-0.18-0.11-0.4-0.2-0.67-0.26c-0.16-0.04-0.28-0.09-0.36-0.16
	c-0.09-0.06-0.14-0.15-0.16-0.25c-0.02-0.1,0-0.19,0.04-0.27c0.05-0.08,0.11-0.14,0.21-0.16c0.13-0.02,0.25,0.01,0.37,0.1
	c0.12,0.09,0.24,0.23,0.37,0.43L1299.57,1716.81z"/>
<path class="st2" d="M1302.16,1718.22l-0.11-0.2c-0.04,0.03-0.08,0.05-0.12,0.08c-0.05,0.02-0.1,0.04-0.17,0.06
	c-0.08,0.02-0.16,0-0.25-0.06s-0.15-0.21-0.2-0.44l-0.32-1.59l0.56-0.11c0.04-0.03,0.06-0.08,0.05-0.15
	c-0.01-0.07-0.03-0.12-0.07-0.15l-0.59,0.12l-0.18-0.88l-0.1-0.03l-0.59,0.62l0.09,0.44l-0.22,0.04l-0.13,0.26l0.05,0.06l0.36-0.07
	l0.36,1.8c0.06,0.28,0.16,0.47,0.31,0.57s0.34,0.12,0.56,0.08c0.03-0.01,0.07-0.02,0.11-0.04c0.04-0.02,0.08-0.05,0.13-0.08
	L1302.16,1718.22z"/>
<path class="st2" d="M1303.08,1715.94l-0.13-0.66c-0.15,0.09-0.32,0.17-0.49,0.25c-0.17,0.08-0.35,0.15-0.54,0.21l0.03,0.17
	c0.14,0,0.23,0.02,0.28,0.07c0.05,0.04,0.09,0.15,0.12,0.31l0.28,1.39c0.04,0.18,0.04,0.3,0.01,0.36c-0.03,0.06-0.13,0.11-0.28,0.15
	l0.04,0.2l1.59-0.32l-0.04-0.2c-0.21,0.03-0.34,0.03-0.4-0.01s-0.11-0.15-0.14-0.34l-0.25-1.25c0.03-0.13,0.06-0.21,0.11-0.26
	c0.04-0.05,0.09-0.07,0.15-0.08c0.05-0.01,0.09-0.01,0.14,0.01c0.04,0.01,0.09,0.04,0.15,0.07c0.03,0.02,0.05,0.02,0.08,0.02
	c0.03,0,0.06-0.01,0.1-0.04c0.07-0.05,0.13-0.11,0.17-0.21s0.06-0.2,0.04-0.31c-0.02-0.11-0.08-0.2-0.16-0.26
	c-0.08-0.06-0.18-0.08-0.3-0.06c-0.12,0.03-0.23,0.11-0.31,0.25c-0.09,0.14-0.16,0.32-0.22,0.53L1303.08,1715.94z"/>
<path class="st2" d="M1306.29,1717.61l-0.04-0.2c-0.16,0.02-0.28,0.01-0.33-0.04c-0.06-0.05-0.1-0.17-0.14-0.38l-0.44-2.18
	c-0.17,0.09-0.35,0.17-0.52,0.25s-0.35,0.15-0.53,0.21l0.03,0.17c0.15-0.01,0.25,0.01,0.3,0.06c0.05,0.04,0.09,0.16,0.12,0.35
	l0.26,1.3c0.05,0.21,0.05,0.34,0.02,0.41s-0.13,0.12-0.28,0.16l0.04,0.2L1306.29,1717.61z M1304.84,1714.54
	c0.13-0.03,0.22-0.09,0.28-0.19c0.06-0.1,0.08-0.21,0.06-0.33c-0.03-0.13-0.09-0.22-0.18-0.29c-0.09-0.07-0.2-0.09-0.33-0.07
	c-0.12,0.03-0.21,0.09-0.27,0.19c-0.06,0.1-0.09,0.21-0.06,0.34c0.03,0.12,0.09,0.22,0.19,0.28
	C1304.62,1714.54,1304.72,1714.56,1304.84,1714.54z"/>
<path class="st2" d="M1308.55,1716.4c-0.09,0.11-0.17,0.19-0.26,0.25c-0.09,0.06-0.19,0.1-0.31,0.12c-0.09,0.02-0.21,0.01-0.34-0.03
	c-0.13-0.04-0.26-0.14-0.38-0.28c-0.12-0.15-0.21-0.36-0.28-0.64c-0.06-0.31-0.06-0.56,0-0.74c0.06-0.18,0.15-0.29,0.29-0.32
	c0.08-0.02,0.18-0.01,0.28,0.03c0.1,0.04,0.22,0.1,0.36,0.2c0.03,0.02,0.06,0.04,0.09,0.04c0.02,0.01,0.04,0.01,0.06,0
	c0.05-0.01,0.1-0.06,0.15-0.13c0.05-0.08,0.06-0.17,0.05-0.27c0-0.04-0.02-0.08-0.04-0.11s-0.07-0.07-0.12-0.09
	c-0.06-0.03-0.14-0.05-0.23-0.06c-0.09-0.01-0.19-0.01-0.3,0.01c-0.13,0.03-0.28,0.09-0.43,0.18s-0.31,0.23-0.45,0.39
	c-0.17,0.2-0.29,0.42-0.35,0.65c-0.06,0.23-0.07,0.46-0.03,0.7c0.05,0.24,0.14,0.45,0.28,0.63s0.31,0.32,0.53,0.41
	c0.21,0.09,0.46,0.11,0.73,0.06c0.19-0.04,0.37-0.14,0.51-0.29s0.27-0.34,0.37-0.56L1308.55,1716.4z"/>
<path class="st2" d="M1310.83,1716.48l-0.11-0.2c-0.04,0.03-0.08,0.05-0.12,0.08c-0.05,0.02-0.1,0.04-0.17,0.06
	c-0.08,0.02-0.16,0-0.25-0.06s-0.15-0.21-0.2-0.44l-0.32-1.59l0.56-0.11c0.04-0.03,0.06-0.08,0.05-0.15s-0.03-0.12-0.07-0.15
	l-0.59,0.12l-0.18-0.88l-0.1-0.03l-0.59,0.62l0.09,0.44l-0.22,0.04l-0.13,0.25l0.05,0.06l0.36-0.07l0.36,1.8
	c0.06,0.28,0.16,0.47,0.31,0.57c0.15,0.1,0.34,0.12,0.56,0.08c0.03-0.01,0.07-0.02,0.11-0.04c0.04-0.02,0.08-0.05,0.13-0.08
	L1310.83,1716.48z"/>
<g>
	<rect x="1396.25" y="1709.18" class="st3" width="80" height="80"/>
	<g>
		<polygon class="st2" points="1415.86,1773.94 1436.5,1756.73 1457.13,1773.94 1461.33,1773.94 1461.75,1772.77 1436.5,1751.72 
			1411.25,1772.77 1411.67,1773.94 		"/>
		<path class="st2" d="M1451.05,1736.16h0.31v0.25L1451.05,1736.16z M1449.91,1735.25l-13.66-10.84l-36,28.56l0.41,1.19h4.56
			l31.03-24.62l31.03,24.62h4.56l0.42-1.19l-16.57-13.15v-3.67h1.46v-2.8h-7.23V1735.25z"/>
		<polygon class="st2" points="1412.07,1753.62 1411.4,1753.62 1411.4,1770.42 1412.43,1770.9 1436.5,1750.83 1460.57,1770.9 
			1461.59,1770.42 1461.59,1753.62 1460.93,1753.62 1436.5,1733.25 		"/>
		<path class="st1" d="M1412.29,1769.86l24.21-20.19l24.21,20.19v-15.26l0,0l0,0v-0.08h-0.1l-24.11-20.1l-24.11,20.1h-0.1v0.08l0,0
			V1769.86z M1454.8,1735.27h1.46v-1.03h-1.46h-2.54h-1.46v1.03h1.46v2.97l-16-12.7l-34.95,27.73h3.62l31.34-24.86l31.33,24.86h3.62
			l-16.41-13.02V1735.27z M1415.54,1773.06l20.96-17.48l20.96,17.48h3.25l-24.21-20.19l-24.21,20.19H1415.54z M1412.29,1754.59
			L1412.29,1754.59L1412.29,1754.59z"/>
	</g>
</g>
</svg>
