<?xml version="1.0" encoding="utf-8"?>
<!-- Generator: Adobe Illustrator 24.3.0, SVG Export Plug-In . SVG Version: 6.00 Build 0)  -->
<svg version="1.1" id="Layer_1" xmlns="http://www.w3.org/2000/svg" xmlns:xlink="http://www.w3.org/1999/xlink" x="0px" y="0px"
	 viewBox="0 0 64 80" style="enable-background:new 0 0 64 80;" xml:space="preserve">
<style type="text/css">
	.st0{fill-rule:evenodd;clip-rule:evenodd;fill:#ED1C24;}
	.st1{fill-rule:evenodd;clip-rule:evenodd;fill:#FFFFFF;}
	.st2{fill-rule:evenodd;clip-rule:evenodd;fill:#171796;stroke:#000000;stroke-width:0.25;stroke-miterlimit:10;}
</style>
<g>
	<rect class="st0" width="64" height="80"/>
	<polygon class="st1" points="15.69,59.81 32.2,46.04 48.7,59.81 52.06,59.81 52.4,58.87 32.2,42.03 12,58.87 12.34,59.81 	"/>
	<path class="st1" d="M43.84,29.58h0.25v0.2L43.84,29.58z M42.93,28.86L32,20.18L3.2,43.03l0.33,0.95h3.65L32,24.29l24.82,19.7h3.65
		l0.34-0.95L47.55,32.51v-2.94h1.17v-2.24h-5.78L42.93,28.86L42.93,28.86z"/>
	<polygon class="st1" points="12.66,43.55 12.12,43.55 12.12,56.99 12.94,57.38 32.2,41.32 51.46,57.38 52.27,56.99 52.27,43.55 
		51.74,43.55 32.2,27.26 	"/>
	<path class="st2" d="M12.83,56.54L32.2,40.39l19.37,16.15V44.34l0,0l0,0v-0.06h-0.08L32.2,28.19L12.91,44.27h-0.08v0.06l0,0V56.54z
		 M46.84,28.87h1.17v-0.82h-1.17h-2.03h-1.17v0.82h1.17v2.38l-12.8-10.16L4.05,43.27h2.9l25.07-19.89l25.06,19.89h2.9L46.85,32.86
		L46.84,28.87L46.84,28.87z M15.43,59.1L32.2,45.12L48.97,59.1h2.6L32.2,42.95L12.83,59.1H15.43z M12.83,44.33L12.83,44.33
		L12.83,44.33z"/>
</g>
</svg>
